<svg width="750" height="250" viewBox="0 0 750 250" fill="none" xmlns="http://www.w3.org/2000/svg">
  <path fill-rule="evenodd" clip-rule="evenodd" d="M750 0H0V250H750V0ZM247.808 165.536C255.68 170.048 264.416 172.304 274.016 172.304C283.904 172.304 293.024 169.856 301.376 164.96L297.344 142.208C293.6 143.744 290.432 144.8 287.84 145.376C285.248 145.952 282.464 146.24 279.488 146.24C271.712 146.24 265.616 143.984 261.2 139.472C256.88 134.864 254.72 128.48 254.72 120.32C254.72 111.968 256.784 105.584 260.912 101.168C265.04 96.656 270.944 94.4 278.624 94.4C284.192 94.4 290.432 95.696 297.344 98.288L301.232 75.968C297.68 73.664 293.408 71.888 288.416 70.64C283.424 69.392 278.336 68.768 273.152 68.768C263.552 68.768 254.912 71.024 247.232 75.536C239.552 79.952 233.504 86.096 229.088 93.968C224.672 101.84 222.464 110.672 222.464 120.464C222.464 130.064 224.72 138.848 229.232 146.816C233.84 154.688 240.032 160.928 247.808 165.536ZM347.53 70.928H314.266V170H347.53V70.928ZM361.113 92.816H381.706V170H415.258V92.816H435.85V70.928H361.113V92.816ZM439.615 70.928L468.127 142.496V170H499.087V142.496L529.039 70.928H497.359L483.679 115.424L469.711 70.928H439.615Z" fill="black"/>
</svg>
